<svg xmlns="http://www.w3.org/2000/svg" viewBox="0 0 500 500"><defs><linearGradient id="g" x1="0" y1="0" x2="1" y2="1"><stop offset="0" stop-color="#ffe7a0"/><stop offset="1" stop-color="#c88b22"/></linearGradient></defs><circle cx="250" cy="250" r="238" fill="#11151d" stroke="url(#g)" stroke-width="18"/><circle cx="250" cy="250" r="213" fill="none" stroke="#f7d98c" stroke-width="3"/><path d="M72 205h356M100 225h300" stroke="#d8b35a" stroke-width="3" opacity=".55"/><path d="M90 205v-38h32v38m12 0v-58h36v58m15 0v-83h48v83m18 0v-48h34v48m14 0v-70h40v70" fill="#252a33" stroke="#e2bd63" stroke-width="3"/><circle cx="250" cy="165" r="72" fill="#f2b77e" stroke="#151922" stroke-width="9"/><path d="M190 150q60-70 120 0" fill="#29231f" stroke="#151922" stroke-width="12"/><path d="M214 174q16-12 32 0M254 174q16-12 32 0" fill="none" stroke="#151922" stroke-width="8" stroke-linecap="round"/><path d="M218 208q32 27 64 0" fill="none" stroke="#7b2c22" stroke-width="9" stroke-linecap="round"/><path d="M305 200l42 54" stroke="#e8e9ec" stroke-width="15" stroke-linecap="round"/><rect x="326" y="178" width="46" height="76" rx="20" fill="#c8cbd0" stroke="#171b22" stroke-width="8" transform="rotate(20 349 216)"/><text x="250" y="350" text-anchor="middle" font-family="Microsoft YaHei,Noto Sans CJK SC,sans-serif" font-size="54" font-weight="900" fill="url(#g)" stroke="#0b1018" stroke-width="9" paint-order="stroke">狮城胖叔</text><text x="250" y="405" text-anchor="middle" font-family="Microsoft YaHei,Noto Sans CJK SC,sans-serif" font-size="27" font-weight="800" fill="#f7e2aa">的股票小马达</text><text x="250" y="443" text-anchor="middle" font-family="Arial,sans-serif" font-size="15" font-weight="800" letter-spacing="4" fill="#f1cf7b">SG FAT UNCLE</text></svg>